<svg width="20" height="20" viewBox="0 0 20 20" fill="none" xmlns="http://www.w3.org/2000/svg">
<g clip-path="url(#clip0_16460_2802)">
<path d="M10 20C15.5228 20 20 15.5228 20 10C20 4.47715 15.5228 0 10 0C4.47715 0 0 4.47715 0 10C0 15.5228 4.47715 20 10 20Z" fill="#3D9635"/>
<path d="M2.94039 5.82191C2.90727 6.33878 2.86477 7.25316 3.25289 7.34566C3.72477 7.39441 3.46477 6.44503 3.63477 6.27253C3.66727 6.18878 3.72727 6.18878 3.73164 6.29441V7.10316C3.72507 7.18904 3.74826 7.27456 3.79731 7.34536C3.84637 7.41615 3.9183 7.4679 4.00102 7.49191C4.12602 7.48253 4.20727 7.48691 4.25539 7.62441C4.27622 8.08816 4.2956 8.55191 4.31352 9.01566C4.31352 9.01566 4.60164 9.11253 4.61539 8.23378C4.5866 7.88583 4.57763 7.53651 4.58852 7.18753C4.58852 7.09003 4.70102 7.08128 4.78102 7.13441C4.90602 7.23191 4.95976 7.35066 5.15101 7.30253C5.44351 7.20941 5.61727 7.05253 5.62227 6.79878C5.61507 6.55354 5.57082 6.31079 5.49102 6.07878C5.50352 6.03441 5.43289 5.92441 5.44789 5.88003C5.49977 5.97316 5.57852 5.96378 5.59602 5.88003C5.56762 5.70902 5.47893 5.55382 5.34601 5.44253C5.24226 5.34066 5.08914 5.36253 5.03351 5.57941C5.02768 5.85611 5.11191 6.12722 5.27351 6.35191C5.32336 6.47509 5.34369 6.60822 5.33289 6.74066C5.29404 6.76474 5.24731 6.77266 5.20269 6.76273C5.15808 6.7528 5.11912 6.72581 5.09414 6.68753C5.09414 6.68753 4.85914 6.48878 4.85914 6.44941C4.91603 6.24391 4.90927 6.02599 4.83977 5.82441C4.81384 5.70338 4.76179 5.58948 4.68727 5.49066C4.62977 5.41566 4.55102 5.41566 4.51352 5.49066C4.43083 5.75945 4.43741 6.04779 4.53227 6.31253C4.58414 6.48878 4.66789 6.59941 4.62977 6.59941C4.59727 6.70128 4.53102 6.67441 4.48352 6.55941C4.42641 6.31189 4.39934 6.0584 4.40289 5.80441C4.38102 5.60566 4.35727 5.17941 4.24164 5.07128C4.17102 4.96503 4.06476 5.01816 4.02726 5.12003C4.01827 5.31133 4.02223 5.50302 4.03914 5.69378C4.10832 5.9993 4.15655 6.30919 4.18352 6.62128C4.19352 7.05878 3.95977 6.80878 3.96977 6.59066C4.01969 6.3143 4.01693 6.03099 3.96164 5.75566C3.92352 5.64128 3.87851 5.61441 3.78414 5.63691C3.70914 5.62753 3.51977 5.86191 3.46664 6.25066C3.43884 6.37608 3.41798 6.50294 3.40414 6.63066C3.37664 6.82941 3.25977 6.97066 3.17789 6.59941C3.10539 6.33003 3.06289 5.66753 2.94414 5.82191" fill="white"/>
<path d="M4.22504 7.94188C3.80816 8.17625 3.40316 8.38813 2.99316 8.60875C3.06237 8.38765 3.18914 8.18892 3.36048 8.03297C3.53181 7.87701 3.74154 7.76943 3.96816 7.72125C4.21816 7.73 4.15566 7.83188 4.22504 7.94188Z" fill="white"/>
<path d="M5.79554 5.01812C5.76834 5.02373 5.74191 5.03254 5.71679 5.04437C5.65302 5.0665 5.60027 5.1124 5.56953 5.17249C5.53878 5.23257 5.53243 5.30221 5.55179 5.36687C5.67054 6.17937 5.74616 6.79812 5.86429 7.60624C5.88491 7.70374 5.81241 7.82749 5.72179 7.81874C5.56616 7.69937 5.52741 7.45624 5.26241 7.46937C5.15051 7.49199 5.04836 7.54873 4.97002 7.63177C4.89168 7.71482 4.84098 7.82009 4.82491 7.93312C4.78923 8.10798 4.78923 8.28825 4.82491 8.46312C4.87206 8.53142 4.94146 8.58123 5.02126 8.60403C5.10106 8.62683 5.1863 8.6212 5.26241 8.58812C5.37866 8.53499 5.47554 8.40062 5.51679 8.43374C5.54241 8.48687 5.51304 8.91062 4.96804 9.23312C4.63116 9.40062 4.36491 9.44499 4.21804 9.13562C4.13054 8.94187 4.22491 8.20812 4.00679 8.37624C3.35804 10.2575 5.52491 10.5225 5.76804 8.45562C5.78366 8.39812 5.83054 8.34062 5.86616 8.35437C5.88241 8.36312 5.89366 8.38499 5.89741 8.42937C5.84741 10.2975 4.22179 10.4212 3.94616 9.83812C3.87935 9.63424 3.84641 9.42078 3.84866 9.20624C3.84841 9.13191 3.82528 9.05946 3.78241 8.99874C3.71616 8.94624 3.62804 9.09187 3.60804 9.34374C3.58815 9.49286 3.58167 9.64347 3.58866 9.79374C3.67491 11.2781 5.76866 10.6419 6.11054 9.41874C6.17794 9.03303 6.19684 8.6404 6.16679 8.24999H6.17366L6.17866 8.24562C6.39054 8.49562 6.67866 8.27624 6.74429 8.19249C6.75118 8.18 6.76094 8.16933 6.77276 8.16135C6.78459 8.15338 6.79814 8.14833 6.8123 8.14662C6.82647 8.14491 6.84083 8.14659 6.85422 8.15152C6.8676 8.15646 6.87962 8.1645 6.88929 8.17499C6.93012 8.20769 6.97837 8.22984 7.02979 8.23948C7.08121 8.24912 7.13421 8.24595 7.18411 8.23026C7.23402 8.21458 7.27929 8.18685 7.31595 8.14952C7.3526 8.1122 7.37951 8.06642 7.39429 8.01624C7.43106 7.7836 7.45464 7.54905 7.46491 7.31374C7.38275 7.33165 7.30565 7.36774 7.23929 7.41937C7.23048 7.42946 7.22464 7.44179 7.22241 7.45499C7.21429 7.51749 7.20554 7.58749 7.19554 7.65374C7.19437 7.65965 7.19291 7.66549 7.19116 7.67124C7.18619 7.67916 7.17902 7.68546 7.17054 7.68937C7.16052 7.69615 7.14888 7.70015 7.13681 7.70094C7.12475 7.70174 7.11268 7.69931 7.10187 7.6939C7.09105 7.68849 7.08186 7.6803 7.07526 7.67016C7.06866 7.66003 7.06487 7.64832 7.06429 7.63624C7.01491 7.38624 6.80866 7.34437 6.68304 7.74187C6.59679 7.82187 6.44554 7.83499 6.42866 7.72437C6.45054 7.45499 6.35304 7.41937 6.16179 7.54312C6.09929 7.01312 6.03679 6.50999 5.97429 5.98062C6.05554 5.98062 6.12679 6.04687 6.20116 5.94499C6.13399 5.6311 6.01978 5.32915 5.86241 5.04937C5.85775 5.04305 5.85275 5.037 5.84741 5.03124C5.84607 5.03114 5.84479 5.03068 5.84369 5.02991C5.84259 5.02914 5.84172 5.02809 5.84116 5.02687H5.83366C5.82991 5.02249 5.82366 5.02249 5.82304 5.01812C5.81304 5.01812 5.80429 5.01374 5.79554 5.01812ZM5.21304 7.91999C5.23847 7.91761 5.26394 7.92425 5.28497 7.93877C5.306 7.95328 5.32125 7.97474 5.32804 7.99937C5.33568 8.02309 5.33751 8.04831 5.33338 8.07289C5.32924 8.09747 5.31927 8.1207 5.30429 8.14062C5.28741 8.17187 5.23241 8.15874 5.19116 8.15874C5.17034 8.16069 5.14942 8.15623 5.13121 8.14595C5.11301 8.13568 5.09837 8.12007 5.08929 8.10124C5.07429 8.05249 5.11554 8.00374 5.13554 7.96437C5.15554 7.92499 5.13929 7.95562 5.14241 7.95124C5.16276 7.93474 5.18714 7.92395 5.21304 7.91999Z" fill="white"/>
<path d="M7.25523 4.97375C7.20403 4.97876 7.15433 4.99384 7.10898 5.01813C7.05643 5.07333 7.02344 5.14425 7.01509 5.22001C7.00673 5.29577 7.02347 5.37218 7.06273 5.4375C7.14523 5.4775 7.22773 5.575 7.17148 5.625C6.94023 5.90375 6.33336 6.37501 6.30273 6.46001V6.46438V6.46876H6.30773C6.45737 6.49433 6.61013 6.4958 6.76023 6.47313V6.46876C7.03354 6.20755 7.28443 5.92384 7.51023 5.62063C7.47961 5.59 7.44773 5.5675 7.41711 5.53688C7.40981 5.53102 7.40392 5.5236 7.39987 5.51516C7.39582 5.50673 7.39372 5.49749 7.39372 5.48813C7.39372 5.47877 7.39582 5.46953 7.39987 5.46109C7.40392 5.45266 7.40981 5.44524 7.41711 5.43938C7.47601 5.38617 7.5117 5.31197 7.51649 5.23274C7.52128 5.1535 7.4948 5.07555 7.44273 5.01563C7.38542 4.98445 7.32029 4.97056 7.25523 4.97563M7.22648 5.21876C7.26461 5.21438 7.30898 5.25875 7.33148 5.31125C7.35398 5.36375 7.34336 5.42625 7.30586 5.43938C7.26836 5.4525 7.21648 5.40875 7.19148 5.35125C7.16648 5.29375 7.18023 5.23188 7.21961 5.22313C7.21961 5.22313 7.21961 5.21876 7.22648 5.21876Z" fill="white"/>
<path d="M3.03633 9.27628C2.93222 9.45969 2.86735 9.66273 2.84584 9.87253C2.82432 10.0823 2.84662 10.2943 2.91133 10.495C2.93968 10.5362 2.98005 10.5676 3.02693 10.5849C3.07381 10.6023 3.1249 10.6047 3.17321 10.5919C3.31758 10.5213 3.38258 10.19 3.34696 10.0713C3.29883 9.98253 3.26071 9.9694 3.21133 10.0444C3.11071 10.2744 3.06758 10.115 3.05821 9.9819C3.04653 9.76361 3.05573 9.5447 3.08571 9.32815C3.11133 9.14753 3.08571 9.20003 3.03508 9.27565" fill="white"/>
<path d="M12.921 8.61376C12.6985 8.07001 12.3885 7.53563 12.2904 7.33251C12.1922 7.12938 11.4479 5.91501 11.3379 5.77376C11.0954 5.45126 11.7304 5.91063 11.2572 5.26563C11.0785 5.09313 11.0697 5.08438 10.9154 4.94313C10.8429 4.88063 10.656 4.77563 10.626 4.95188C10.6089 5.07994 10.6142 5.21 10.6416 5.33626C10.6887 5.45337 10.7518 5.56337 10.8291 5.66313C11.6251 6.8466 12.3172 8.09667 12.8979 9.39938C13.0004 9.34688 12.9785 8.70626 12.9179 8.61376" fill="white"/>
<path d="M11.9417 10.4244C11.8961 10.4775 12.0486 10.72 12.248 10.7156C12.5786 10.6763 12.873 10.4656 13.1405 9.91189C13.2519 9.72277 13.3216 9.51202 13.3448 9.29376C13.3782 8.24719 13.3034 7.19997 13.1217 6.16876C13.1101 6.09685 13.1129 6.02336 13.1298 5.95251C13.1511 5.92189 13.2242 5.95251 13.2623 5.88189C13.3205 5.81564 13.113 5.27689 12.9948 5.06939C12.953 4.97626 12.938 4.91501 12.8698 5.07814C12.7853 5.26362 12.7455 5.46634 12.7536 5.67001C12.9117 6.89814 12.9598 7.98251 13.0661 9.20751C13.0838 9.3337 13.0563 9.46209 12.9886 9.57001C12.7077 9.92894 12.3511 10.2215 11.9442 10.4269" fill="white"/>
<path d="M15.7393 12.2194C15.4999 12.3744 15.4999 12.555 15.6943 12.5594C15.8921 12.5641 16.0877 12.5173 16.2619 12.4237C16.4361 12.33 16.583 12.1926 16.6881 12.025C16.7831 11.8076 16.8376 11.5745 16.8487 11.3375C16.8936 10.2081 16.8333 9.07697 16.6687 7.95874C16.6475 7.854 16.6364 7.74747 16.6356 7.64062C16.6581 7.58312 16.7649 7.64937 16.8012 7.57812C16.8599 7.51562 16.5243 7.02624 16.4043 6.81874C16.3643 6.72562 16.3493 6.66374 16.2793 6.83187C16.2004 7.01702 16.1765 7.221 16.2106 7.41937C16.3882 8.68474 16.4992 9.95858 16.5431 11.2356C16.5347 11.3422 16.5124 11.4473 16.4768 11.5481C16.3859 11.7033 16.277 11.8472 16.1524 11.9769C16.0424 12.065 15.8124 12.1531 15.7381 12.2194" fill="white"/>
<path d="M16.5959 9.21878C16.5921 8.90628 16.604 8.63566 16.5921 8.40128C16.5802 8.16691 16.4871 7.29253 16.4577 7.10753C16.4284 6.92253 16.3915 6.63503 16.3465 6.40941C16.3203 6.2785 16.3065 6.14541 16.3052 6.01191C16.3227 5.94941 16.3996 6.01628 16.434 5.94128C16.3947 5.59718 16.2885 5.26407 16.1215 4.96066C16.0784 4.86816 15.9965 4.89816 15.8971 5.04941C15.8021 5.14628 15.8346 5.36691 15.8727 5.57941C16.1329 6.96113 16.2593 8.36469 16.2502 9.77066C16.2365 9.88128 16.5996 9.43066 16.5959 9.21878Z" fill="white"/>
<path d="M14.8401 7.48689C14.6895 7.48251 14.3757 7.16001 14.2845 6.97064C14.257 6.87859 14.2632 6.77978 14.302 6.69189C14.3576 6.65251 14.4432 6.60376 14.5063 6.65251C14.5063 6.65251 14.5726 6.75376 14.5601 6.76751C14.6413 6.81126 14.677 6.78501 14.6851 6.74501C14.6901 6.68251 14.6595 6.64376 14.6595 6.57314C14.6938 6.37439 14.8932 6.34751 14.972 6.47126C15.0257 6.57819 15.0544 6.69597 15.0557 6.81564C15.0557 6.87314 14.9738 6.80689 14.9307 6.82001C14.8876 6.83314 14.8738 6.89126 14.8682 6.94501C14.8582 7.09064 14.8445 7.31626 14.8426 7.48814" fill="white"/>
<path d="M12.0763 9.56753C12.1188 9.13878 12.0626 8.27315 12.0588 8.0219C12.0451 7.43003 11.9569 6.28565 11.9176 6.09565C11.8701 5.73378 12.0482 6.13565 12.0226 5.92378C11.9441 5.58474 11.7929 5.26679 11.5794 4.9919C11.5132 4.88565 11.5169 4.86378 11.4107 5.01815C11.3431 5.2556 11.3479 5.50782 11.4244 5.74253C11.5673 6.43583 11.6605 7.13845 11.7032 7.84503C11.7483 8.58921 11.754 9.33525 11.7201 10.08C11.8332 10.08 12.0138 9.87253 12.0763 9.56753Z" fill="white"/>
<path d="M17.1066 8.88314C16.8447 8.38314 16.4447 7.80064 16.3391 7.60189C16.2335 7.40314 15.331 5.91939 15.2185 5.78939C14.8885 5.40502 15.3697 5.72689 15.156 5.42252C15.041 5.26814 14.9103 5.12612 14.766 4.99877C14.6891 4.94564 14.641 4.83502 14.616 5.01627C14.6023 5.17776 14.5984 5.33993 14.6041 5.50189C14.6215 5.61167 14.6666 5.71517 14.7354 5.80252C15.6265 7.02522 16.418 8.3175 17.1022 9.66689C17.2022 9.61439 17.1679 8.97377 17.106 8.88564" fill="white"/>
<path d="M13.9107 13.6137C13.8642 13.6277 13.8226 13.6545 13.7906 13.691C13.7587 13.7275 13.7376 13.7723 13.7298 13.8202C13.7221 13.8681 13.7279 13.9172 13.7468 13.9619C13.7656 14.0066 13.7966 14.0452 13.8363 14.0731C11.3707 14.0731 7.58633 14.0287 6.7782 14.0287C6.32258 14.0287 4.8882 13.9662 4.86133 13.9662C5.00395 14.1838 5.20469 14.357 5.44076 14.4663C5.67684 14.5755 5.93881 14.6164 6.19695 14.5844C7.2932 14.5844 12.3651 14.5712 13.807 14.5712C13.7705 14.6695 13.7597 14.7754 13.7757 14.879C13.7916 14.9826 13.8338 15.0804 13.8982 15.1631L13.9038 15.1675C13.9046 15.1691 13.9059 15.1704 13.9075 15.1711C13.909 15.1719 13.9108 15.1722 13.9126 15.1719H13.917C14.0132 15.1987 14.0551 15.1187 14.0888 15.0662C14.4573 15.0869 14.8267 15.0854 15.1951 15.0619C15.2495 15.15 15.3045 15.2337 15.4063 15.2206C15.5863 15.1762 15.7276 15.1544 15.7338 14.7437C15.7338 14.7437 15.7151 14.0456 15.3063 14.09C15.2095 14.1031 14.9388 14.1344 14.9388 14.1344C14.6263 14.0944 14.3932 14.09 14.0407 14.0719C14.0738 14.0275 14.1301 13.8375 14.0601 13.7712C14.0485 13.7615 14.035 13.7541 14.0205 13.7496C14.006 13.7451 13.9908 13.7435 13.9757 13.745H13.9688C13.9688 13.745 13.9632 13.7406 13.9613 13.7362V13.7319C13.9452 13.6931 13.9321 13.6532 13.922 13.6125H13.9138M14.0813 14.6125C14.4388 14.63 14.7763 14.6169 15.1376 14.6344C15.1596 14.6641 15.1707 14.7006 15.1689 14.7376C15.1672 14.7746 15.1529 14.8099 15.1282 14.8375C15.1282 14.8419 15.1232 14.8419 15.1232 14.8419H15.1132C14.9963 14.8375 14.9295 14.8375 14.8126 14.8331C14.8126 14.8244 14.8088 14.82 14.8088 14.8112C14.7801 14.7181 14.5813 14.7275 14.5326 14.8025V14.8069V14.8156V14.8244C14.5314 14.8287 14.5314 14.8332 14.5326 14.8375C14.3793 14.8472 14.2253 14.8414 14.0732 14.82C14.0288 14.7575 14.0338 14.6431 14.0882 14.6125" fill="white"/>
<path d="M7.67284 5.39811C7.43347 6.16623 7.81159 7.01436 8.07284 6.93498C8.26034 7.01873 8.38097 6.61248 8.45972 6.17061C8.51347 6.04561 8.55284 6.03373 8.58034 6.09561C8.57222 6.68748 8.61722 6.81998 8.75222 6.99686C8.78843 7.03573 8.83211 7.06688 8.88066 7.08845C8.92921 7.11003 8.98161 7.12157 9.03473 7.12238C9.08785 7.1232 9.14058 7.11328 9.18977 7.09321C9.23895 7.07314 9.28358 7.04335 9.32097 7.00561C9.34034 6.98811 9.55534 6.74498 9.55534 6.74498C9.56672 6.73021 9.58119 6.7181 9.59773 6.70949C9.61427 6.70089 9.63249 6.696 9.65112 6.69517C9.66975 6.69433 9.68834 6.69758 9.70558 6.70467C9.72283 6.71176 9.73832 6.72253 9.75097 6.73623C9.82034 6.80686 9.81347 6.93498 9.96472 7.01873C10.0446 7.04994 10.1321 7.05613 10.2156 7.03649C10.2991 7.01684 10.3746 6.97229 10.4322 6.90873C10.5185 6.74498 10.5372 6.68748 10.5766 6.62561C10.6391 6.53311 10.7428 6.57311 10.7428 6.60373C10.7335 6.65686 10.6747 6.70561 10.7128 6.79811C10.7878 6.86061 10.8047 6.81998 10.8485 6.80686C11.001 6.72311 11.116 6.35186 11.116 6.35186C11.121 6.21061 11.0535 6.22373 11.006 6.25498C10.9491 6.29436 10.9435 6.30811 10.886 6.34748C10.8122 6.35623 10.6672 6.41373 10.5972 6.28998C10.5228 6.13998 10.5228 5.92811 10.4653 5.77811C10.4653 5.76936 10.3697 5.54373 10.4597 5.52811C10.5041 5.53686 10.6003 5.56748 10.6166 5.47498C10.6653 5.38686 10.5147 5.13061 10.4128 5.00686C10.3946 4.98021 10.3704 4.95819 10.3422 4.94256C10.314 4.92693 10.2825 4.91812 10.2502 4.91685C10.218 4.91557 10.1859 4.92186 10.1565 4.93521C10.1271 4.94856 10.1012 4.9686 10.081 4.99373C10.0218 5.07257 9.99052 5.1689 9.99222 5.26748C9.97898 5.33148 9.9792 5.39754 9.99287 5.46145C10.0065 5.52537 10.0333 5.58574 10.0716 5.63873C10.214 5.86354 10.2798 6.12842 10.2591 6.39373C10.2349 6.43702 10.1995 6.47299 10.1566 6.49785C10.1137 6.52271 10.0649 6.53554 10.0153 6.53498C9.95284 6.51748 9.84659 6.48623 9.79034 6.02686C9.80362 5.6651 9.76275 5.3034 9.66909 4.95373C9.62097 4.81248 9.58722 4.67561 9.47034 4.91873C9.41943 4.99525 9.38676 5.08242 9.37484 5.17355C9.36292 5.26468 9.37207 5.35732 9.40159 5.44436C9.49146 5.70675 9.51717 5.98686 9.47659 6.26123C9.43678 6.34029 9.38993 6.41559 9.33659 6.48623C9.30281 6.53049 9.25313 6.55987 9.19808 6.56815C9.14302 6.57643 9.0869 6.56297 9.04159 6.53061C8.99102 6.50207 8.94823 6.46156 8.91695 6.41264C8.88568 6.36371 8.86689 6.30786 8.86222 6.24998C8.88301 5.94789 8.87317 5.64447 8.83284 5.34436C8.76159 5.17623 8.64097 5.23811 8.59097 5.28686C8.35636 5.58235 8.20355 5.93432 8.14784 6.30748C8.07909 6.55436 8.00597 6.48373 7.95534 6.38248C7.83034 6.25436 7.82284 5.22936 7.67284 5.39748" fill="white"/>
<path d="M8.48289 6.99252C8.48289 6.9969 8.47977 6.9969 8.47602 6.9969V7.00127C8.46039 7.01002 8.43977 7.04127 8.39852 7.07627C8.36355 7.12321 8.33862 7.17684 8.32529 7.23383C8.31195 7.29082 8.3105 7.34995 8.32102 7.40752C8.32414 7.43002 8.45227 7.8319 8.56352 8.11877C8.65671 8.42924 8.68814 8.75496 8.65602 9.07752C8.4773 9.49191 8.17781 9.8428 7.79664 10.0844C7.74103 10.1125 7.67958 10.1272 7.61727 10.1272C7.55495 10.1272 7.4935 10.1125 7.43789 10.0844V10.08C7.40348 10.0531 7.37652 10.0179 7.35956 9.97761C7.34261 9.93736 7.33622 9.89344 7.34102 9.85002C7.72512 9.61351 8.02696 9.26432 8.20539 8.85002C8.28967 8.6169 8.29776 8.36304 8.22852 8.12502C8.20689 8.00441 8.1565 7.89078 8.08164 7.79377C8.08164 7.79377 8.08164 7.79377 8.08164 7.7894C8.12977 7.76315 8.25414 7.86877 8.27477 7.80252C8.23862 7.61245 8.1523 7.43551 8.02477 7.29002C8.00821 7.26571 7.98636 7.24547 7.96087 7.2308C7.93538 7.21613 7.90689 7.20741 7.87756 7.20531C7.84822 7.2032 7.81879 7.20776 7.79146 7.21865C7.76413 7.22953 7.73962 7.24645 7.71977 7.26815C7.61664 7.3344 7.59477 7.56877 7.64289 7.77627C7.69914 7.92627 7.85102 7.95315 7.95914 8.2619V8.26627C7.97975 8.37366 7.97331 8.48449 7.94039 8.58877C7.75697 8.84403 7.5393 9.07284 7.29352 9.26877L7.28914 9.27315V9.27815H7.28227C7.28227 9.27315 7.28227 9.27315 7.28227 9.27315C7.28466 9.23944 7.28466 9.2056 7.28227 9.1719C7.28227 9.08377 7.31414 8.87127 7.31164 8.8319V8.82752C7.12727 8.9644 7.06164 9.3794 7.02977 9.50315C6.55989 9.79599 6.12024 10.1347 5.71727 10.5144C5.55602 10.7931 6.82414 10.1875 6.96727 10.1169C6.96727 10.1169 6.97102 10.1169 6.97289 10.1213C6.9997 10.2125 7.0377 10.3 7.08602 10.3819C7.16004 10.4893 7.26559 10.571 7.38807 10.6158C7.51056 10.6606 7.64394 10.6662 7.76977 10.6319C8.18613 10.4304 8.53125 10.1069 8.75914 9.7044C8.79664 9.6419 8.85727 9.59377 8.91164 9.6419C9.04269 9.89834 9.24394 10.1122 9.49193 10.2586C9.73992 10.405 10.0244 10.4779 10.3123 10.4688C10.4704 10.2519 10.396 10.1419 10.331 10.1019C10.3104 10.0844 9.98914 9.94315 9.94039 9.8019C9.90977 9.67377 9.98414 9.55877 10.1385 9.47002C10.5784 9.42438 11.0119 9.33113 11.4316 9.1919C11.4467 9.01773 11.4949 8.84803 11.5735 8.6919C11.5898 8.65648 11.615 8.6259 11.6466 8.60315C11.6466 8.60315 11.6466 8.60315 11.6466 8.59877V8.5944C11.6472 8.5915 11.6472 8.58854 11.6466 8.58565L11.5735 8.5369L10.1685 8.52815C10.1545 8.52263 10.1412 8.51528 10.1291 8.50627V8.5019V8.49752V8.49315V8.48877V8.4844C10.1291 8.48002 10.1291 8.48002 10.1291 8.48002C10.1402 8.46507 10.1557 8.4541 10.1735 8.44877C10.511 8.40002 11.106 8.29002 11.1448 7.64065C11.1551 7.5675 11.1502 7.49302 11.1306 7.42181C11.111 7.35059 11.0769 7.28417 11.0306 7.22664C10.9842 7.16912 10.9266 7.12171 10.8612 7.08735C10.7958 7.05299 10.7241 7.03242 10.6504 7.0269C10.5097 7.05707 10.3862 7.14063 10.3059 7.25999C10.2256 7.37936 10.1947 7.52522 10.2198 7.6669C10.2079 7.75127 10.2473 7.92315 10.1685 7.94065C9.65102 7.99815 9.08727 8.36065 9.06664 8.62127H9.05977L9.05602 8.62565H9.04914L9.04289 8.62127C9.01646 8.60498 8.99568 8.58094 8.98338 8.55243C8.97108 8.52391 8.96785 8.49231 8.97414 8.4619C8.95046 7.99171 8.82936 7.53157 8.61852 7.11065C8.54727 7.0269 8.51477 6.99565 8.49352 6.99127H8.48477M10.5391 7.57002C10.5784 7.56599 10.6177 7.57693 10.6491 7.60065C10.6739 7.61317 10.6949 7.63202 10.7101 7.65529C10.7252 7.67856 10.734 7.70542 10.7354 7.73315V7.7419V7.74627V7.75002C10.7354 7.75002 10.7304 7.7544 10.7266 7.75877C10.6991 7.7894 10.6391 7.78502 10.5791 7.74502C10.556 7.73234 10.5362 7.71443 10.5212 7.69273C10.5062 7.67103 10.4965 7.64613 10.4929 7.62002V7.61502C10.4929 7.60627 10.4966 7.6019 10.4991 7.6019L10.5029 7.59315C10.5029 7.58877 10.5029 7.58877 10.5098 7.5844C10.5141 7.58004 10.5193 7.57662 10.525 7.57436C10.5307 7.5721 10.5368 7.57105 10.5429 7.57127M9.23602 8.90502H9.24977C9.44343 8.94607 9.64013 8.97115 9.83789 8.98002C10.001 8.99315 10.0816 9.1344 9.92914 9.19627C9.77664 9.25815 9.63352 9.29815 9.63352 9.54565C9.65417 9.61476 9.65417 9.68841 9.63352 9.75752C9.63352 9.7619 9.62977 9.76627 9.62727 9.76627V9.77065V9.77502H9.62289L9.61602 9.7794C9.61564 9.78061 9.61489 9.78168 9.61389 9.78246C9.61288 9.78325 9.61166 9.7837 9.61039 9.78377C9.57289 9.78815 9.52102 9.7444 9.48102 9.72627C9.37343 9.65228 9.28295 9.55609 9.21568 9.44418C9.1484 9.33227 9.10589 9.20724 9.09102 9.07752C9.08913 9.05656 9.09144 9.03544 9.0978 9.01538C9.10415 8.99532 9.11443 8.97672 9.12804 8.96067C9.14165 8.94462 9.15832 8.93143 9.17707 8.92188C9.19582 8.91232 9.21628 8.90659 9.23727 8.90502" fill="white"/>
<path d="M4.71266 5.4069C4.87579 5.49065 5.17891 5.45565 5.16641 5.16378C5.16641 5.13753 5.16141 5.0494 5.15954 5.0269C5.12766 4.93878 5.03454 4.95628 5.01579 5.0494C5.00891 5.07565 5.02579 5.1244 5.00329 5.1419C4.98079 5.1594 4.93766 5.14628 4.94079 5.0669C4.9392 5.04128 4.93007 5.01671 4.91454 4.99628C4.90968 4.99086 4.90349 4.98679 4.89659 4.98449C4.88968 4.98219 4.8823 4.98173 4.87516 4.98315C4.85329 4.98753 4.85329 4.9919 4.84329 5.01378C4.83552 5.03503 4.8313 5.05741 4.83079 5.08003C4.82704 5.11065 4.81579 5.12003 4.79704 5.1244C4.77829 5.12878 4.78266 5.12878 4.76391 5.11565C4.75516 5.1019 4.74016 5.09753 4.74016 5.07565C4.73975 5.05193 4.73724 5.0283 4.73266 5.00503C4.72252 4.99188 4.70818 4.98262 4.69204 4.97878C4.60266 4.97878 4.59704 5.09315 4.60266 5.13753C4.59516 5.14628 4.59266 5.3494 4.71266 5.4069Z" fill="white"/>
<path d="M9.46023 7.66815C9.62211 7.75252 10.0071 7.70377 9.91461 7.41815C9.91359 7.37238 9.91025 7.3267 9.90461 7.28127C9.87273 7.19315 9.78336 7.21502 9.76148 7.30377C9.75648 7.3344 9.77398 7.38315 9.75086 7.40065C9.72773 7.41815 9.68461 7.40065 9.68836 7.32127C9.68672 7.29699 9.67754 7.27383 9.66211 7.25502C9.6574 7.25012 9.65162 7.24638 9.64522 7.2441C9.63882 7.24183 9.63198 7.24107 9.62523 7.2419C9.60398 7.24627 9.60398 7.25065 9.59148 7.27252C9.58464 7.29399 9.58065 7.31626 9.57961 7.33877C9.57961 7.37002 9.56648 7.37877 9.54711 7.38315C9.52773 7.38752 9.53336 7.38752 9.51461 7.3744C9.49586 7.36127 9.49086 7.3569 9.49086 7.3344C9.49168 7.3104 9.48808 7.28646 9.48023 7.26377C9.47106 7.2502 9.45692 7.24077 9.44086 7.23752C9.35336 7.23752 9.34836 7.3519 9.35148 7.39627C9.34648 7.40065 9.34273 7.60377 9.46273 7.66565" fill="white"/>
<path d="M12.2297 6.73188C12.3909 6.81563 12.6953 6.77625 12.6828 6.48188C12.6828 6.46 12.6778 6.37188 12.6759 6.345C12.6415 6.26125 12.5509 6.27875 12.5322 6.37188C12.5247 6.39813 12.5415 6.44688 12.5178 6.46C12.5059 6.4775 12.4553 6.46875 12.4553 6.385C12.4521 6.35974 12.4432 6.33556 12.429 6.31438C12.4177 6.30996 12.4055 6.30845 12.3934 6.31C12.3722 6.31 12.3722 6.31438 12.359 6.33625C12.3518 6.35914 12.3476 6.38289 12.3465 6.40688C12.3465 6.43375 12.3347 6.4425 12.314 6.44688C12.2934 6.45125 12.2972 6.45125 12.2828 6.43813C12.2759 6.43393 12.2701 6.42808 12.2659 6.4211C12.2618 6.41413 12.2594 6.40624 12.259 6.39813C12.2583 6.37282 12.2547 6.34766 12.2484 6.32313C12.2367 6.31449 12.2233 6.30851 12.209 6.30563C12.1209 6.30563 12.1134 6.42 12.1197 6.46C12.1134 6.46875 12.1097 6.67188 12.2303 6.72938" fill="white"/>
<path d="M13.6622 9.07752C13.5653 9.23803 13.5064 9.41857 13.49 9.60533C13.4737 9.79209 13.5003 9.98012 13.5678 10.155C13.6282 10.34 13.7516 10.498 13.9165 10.6013C13.9409 10.6277 13.9711 10.648 14.0048 10.6605C14.0386 10.6729 14.0748 10.6771 14.1104 10.6728C14.1461 10.6684 14.1802 10.6557 14.21 10.6355C14.2397 10.6154 14.2643 10.5884 14.2815 10.5569C14.4465 10.3625 14.4509 9.87252 14.5272 9.77502C14.5834 9.59377 14.719 9.62502 14.7853 9.7044C14.8454 9.79834 14.9265 9.87706 15.0222 9.9344C15.0535 9.9716 15.092 10.0022 15.1354 10.0243C15.1787 10.0465 15.226 10.0598 15.2745 10.0635C15.3231 10.0671 15.3718 10.0611 15.418 10.0457C15.4642 10.0303 15.5068 10.0058 15.5434 9.97377C15.6807 9.88673 15.7801 9.75099 15.8215 9.59377C15.882 8.85044 15.8889 8.10372 15.8422 7.3594C15.834 7.30627 15.6822 6.44065 15.6822 6.43127C15.6822 6.4219 15.6603 5.99002 15.6447 5.88815C15.6409 5.8444 15.6322 5.83065 15.6715 5.83565C15.7128 5.8794 15.7165 5.88377 15.7428 5.89252C15.784 5.9019 15.8215 5.8219 15.7972 5.7469C15.6722 5.4819 15.539 5.21252 15.4103 4.9519C15.3809 4.91252 15.3397 4.8769 15.289 4.95627C15.2584 4.98792 15.2344 5.02531 15.2183 5.06628C15.2022 5.10726 15.1944 5.15101 15.1953 5.19502C15.2072 5.38252 15.2365 5.5794 15.2472 5.7694C15.299 6.09127 15.3503 6.41815 15.4022 6.74502C15.4503 7.43877 15.4647 8.0744 15.5122 8.76815C15.5233 9.01888 15.4656 9.26788 15.3453 9.48815C15.3453 9.48815 15.2322 9.56752 15.154 9.48377C15.0457 9.352 14.9507 9.20985 14.8703 9.0594C14.754 8.94065 14.6765 8.97127 14.594 9.0594C14.3901 9.37915 14.2277 9.72359 14.1109 10.0844C14.0697 10.155 13.9578 10.2169 13.834 10.08C13.6706 9.77388 13.6103 9.42317 13.6622 9.08002" fill="white"/>
<path d="M12.3023 5.02688C12.3814 5.0946 12.4424 5.18101 12.4796 5.27826C12.5168 5.37551 12.5291 5.48052 12.5154 5.58375C12.4861 5.7825 12.4104 6.00313 12.3542 5.9725C12.2979 5.94188 12.3942 5.77375 12.3386 5.5925C12.3042 5.47313 12.1079 5.26125 12.1286 5.195C12.1202 5.171 12.1188 5.14508 12.1247 5.12033C12.1305 5.09558 12.1434 5.07303 12.1616 5.05534C12.1799 5.03765 12.2029 5.02557 12.2278 5.02053C12.2528 5.01548 12.2786 5.01769 12.3023 5.02688Z" fill="white"/>
<path d="M14.1302 9.27626C14.1435 8.98424 14.1332 8.69163 14.0995 8.40126C14.0908 8.17188 13.867 6.27626 13.8195 6.10001C13.7645 5.76938 14.0389 6.05626 14.007 5.86188C13.9133 5.61876 13.6777 5.26126 13.6045 5.04938C13.5577 4.95626 13.577 4.87688 13.4795 5.02688C13.394 5.29489 13.3636 5.57744 13.3902 5.85751C13.6704 7.17031 13.8195 8.50772 13.8352 9.85001C13.947 9.85001 14.0764 9.56313 14.1327 9.27626" fill="white"/>
<path d="M15.9268 7.29938C16.0624 7.37876 16.1387 7.78938 16.1243 7.90876C16.0987 8.12501 16.0287 8.35938 15.9781 8.32813C15.9274 8.29688 15.9887 8.00626 15.9624 7.91751C15.9306 7.78938 15.7524 7.55563 15.7706 7.48501C15.7343 7.33876 15.8493 7.27751 15.9268 7.29751" fill="white"/>
<path d="M6.77891 8.52502C6.90391 8.57814 6.97891 8.88314 6.96641 8.97127C6.94079 9.13002 6.87391 9.29814 6.82641 9.28377C6.77891 9.26939 6.83766 9.04502 6.81079 8.97877C6.80141 8.81564 6.62329 8.72877 6.62954 8.66064C6.59579 8.53252 6.70079 8.51064 6.78079 8.52814" fill="white"/>
<path d="M3.3967 4.92565C3.5842 4.98815 3.5942 5.29627 3.5842 5.3894C3.55857 5.55252 3.4917 5.7294 3.44295 5.70752C3.3942 5.68565 3.44295 5.4644 3.4167 5.39502C3.38982 5.29315 3.2292 5.12127 3.25045 5.06815C3.2142 4.95752 3.32107 4.9044 3.39857 4.9269" fill="white"/>
<path d="M7.08338 6.38315C7.00999 6.44086 6.95894 6.52231 6.93899 6.61352C6.91903 6.70474 6.93141 6.80005 6.97401 6.88314C6.99866 6.91993 7.03465 6.94765 7.07651 6.9621C7.11836 6.97654 7.1638 6.97691 7.20588 6.96314C7.34651 6.98502 7.42963 6.66689 7.42963 6.66689C7.42963 6.66689 7.43401 6.57877 7.26901 6.74627C7.19776 6.76439 7.18901 6.73314 7.17088 6.68877C7.15424 6.60614 7.16161 6.52047 7.19213 6.4419C7.21776 6.3619 7.16401 6.3269 7.08338 6.3844" fill="white"/>
<path d="M8.15653 4.80625C8.09399 4.85707 8.04241 4.92006 8.00492 4.99139C7.96742 5.06272 7.9448 5.14092 7.9384 5.22125C7.93278 5.3275 7.91465 5.3275 7.97778 5.39813C8.02465 5.47313 8.0709 5.46438 8.16215 5.40688C8.18561 5.39044 8.20554 5.36947 8.22078 5.34521C8.23603 5.32096 8.24627 5.2939 8.2509 5.26563C8.2734 5.14063 8.1359 5.32313 8.11715 5.18625C8.08778 5.05813 8.17528 5.00938 8.25965 4.88125C8.25965 4.7975 8.25965 4.74 8.15653 4.80625Z" fill="white"/>
<path d="M9.02363 4.97877C8.98924 5.13713 8.96833 5.29813 8.96113 5.46002C8.9355 5.5794 9.07425 5.6319 9.13488 5.47752C9.19734 5.3092 9.23053 5.13142 9.23301 4.9519C9.20551 4.77065 9.09551 4.78002 9.02363 4.97877Z" fill="white"/>
<path d="M14.4799 8.10128C14.4999 8.08315 15.2486 7.48253 15.2486 7.48253C15.3255 7.4519 15.3111 7.79503 15.2743 7.78753C15.0472 8.03978 14.7785 8.25118 14.4799 8.41253C14.4436 8.4394 14.4061 8.17878 14.4799 8.10378" fill="white"/>
<path d="M15.164 8.09685C15.2978 8.17185 15.3515 8.60435 15.3353 8.72185C15.3403 8.95185 15.2103 9.13685 15.1565 9.1106C15.1028 9.08435 15.1622 8.82373 15.1365 8.7306C15.0786 8.58991 15.0367 8.44316 15.0115 8.2931C14.974 8.14685 15.0828 8.06748 15.1634 8.09435" fill="white"/>
<path d="M10.7019 9.96935C10.7635 9.89111 10.8351 9.82134 10.915 9.76185C10.9391 9.74976 10.9665 9.74621 10.9929 9.75177C11.0192 9.75733 11.0429 9.77169 11.06 9.79248C11.0731 9.87248 11.0138 9.95185 11.0325 10.0619C11.0475 10.1062 11.06 10.1594 11.1325 10.1375C11.1798 10.0957 11.2351 10.0639 11.2951 10.0441C11.355 10.0244 11.4184 10.017 11.4813 10.0225C11.575 10.0225 11.5756 10.1987 11.52 10.1987C11.355 10.2441 11.1954 10.307 11.0438 10.3862C11.0225 10.4015 10.9961 10.4078 10.9702 10.4037C10.9443 10.3996 10.9211 10.3855 10.9056 10.3644C10.8911 10.3416 10.8824 10.3157 10.8801 10.2888C10.8778 10.2619 10.8821 10.2349 10.8925 10.21C10.8988 10.1212 10.8669 10.0731 10.8 10.0775C10.75 10.1125 10.7069 10.13 10.6819 10.0687C10.6731 10.02 10.6694 9.99373 10.7019 9.96685" fill="white"/>
<path d="M15.9537 10.2037C15.975 10.2256 15.9869 10.2548 15.9869 10.2853C15.9869 10.3158 15.975 10.345 15.9537 10.3669C15.9 10.4244 15.8644 10.4506 15.8106 10.5081C15.7869 10.5569 15.7713 10.6275 15.8463 10.6494C15.9856 10.6937 16.3106 10.4619 16.3106 10.4506C16.328 10.4348 16.3402 10.4141 16.3457 10.3913C16.3512 10.3684 16.3496 10.3444 16.3413 10.3225C16.3106 10.2831 16.2425 10.305 16.1969 10.305C16.1731 10.305 16.1013 10.2875 16.1344 10.2212C16.1584 10.1818 16.1781 10.1399 16.1931 10.0962C16.2138 10.0387 16.1975 10.0037 16.1156 9.97123C16.0494 9.96027 15.9818 9.96027 15.9156 9.97123C15.8675 9.98436 15.8531 10.0112 15.8419 10.0731C15.845 10.17 15.8988 10.1656 15.955 10.2056" fill="white"/>
</g>
<defs>
<clipPath id="clip0_16460_2802">
<rect width="20" height="20" fill="white"/>
</clipPath>
</defs>
</svg>
