<svg width="20" height="20" viewBox="0 0 20 20" fill="none" xmlns="http://www.w3.org/2000/svg">
<g clip-path="url(#clip0_16460_2837)">
<path d="M7.36844 0H0V1.5607L7.36844 6.38828V0Z" fill="#41479B"/>
<path d="M0 5.33588V7.36845H3.1023L0 5.33588Z" fill="#41479B"/>
<path d="M0 12.6316V14.6641L3.1023 12.6316H0Z" fill="#41479B"/>
<path d="M20.0003 1.5607V0H12.6318V6.38828L20.0003 1.5607Z" fill="#41479B"/>
<path d="M19.9998 14.6641V12.6316H16.8975L19.9998 14.6641Z" fill="#41479B"/>
<path d="M12.6318 13.6117V20H20.0003V18.4393L12.6318 13.6117Z" fill="#41479B"/>
<path d="M19.9998 7.36845V5.33588L16.8975 7.36845H19.9998Z" fill="#41479B"/>
<path d="M0 18.4393V20H7.36844V13.6117L0 18.4393Z" fill="#41479B"/>
<path d="M20.0002 18.4393V16.8796L13.4558 12.6316H15.3893L20.0002 15.6245V14.6641L16.8979 12.6316H20.0002V11.5789H11.5791V20H12.6317V13.6117L20.0002 18.4393Z" fill="#F5F5F5"/>
<path d="M0 11.5789V12.6316H3.1023L0 14.6641V16.1407L5.40605 12.6316H7.33949L0 17.3958V18.4393L7.36844 13.6117V20H8.42105V11.5789H0Z" fill="#F5F5F5"/>
<path d="M8.42105 0H7.36844V6.38828L0 1.5607V3.26871L6.31578 7.36844H4.38234L0 4.52371V5.33586L3.1023 7.36844H0V8.42105H8.42105V0Z" fill="#F5F5F5"/>
<path d="M20.0002 8.42105V7.36844H16.8979L20.0002 5.33586V3.84039L14.5652 7.36844H12.6317L20.0002 2.58535V1.5607L12.6317 6.38828V0H11.5791V8.42105H20.0002Z" fill="#F5F5F5"/>
<path d="M20 11.5789V8.42105H11.5789V0H8.42105V8.42105H0V11.5789H8.42105V20H11.5789V11.5789H20Z" fill="#FF4B55"/>
<path d="M5.40605 12.6316L0 16.1407V17.3958L7.33949 12.6316H5.40605Z" fill="#FF4B55"/>
<path d="M13.4561 12.6316L20.0004 16.8796V15.6246L15.3895 12.6316H13.4561Z" fill="#FF4B55"/>
<path d="M6.31578 7.36846L0 3.26874V4.52374L4.38234 7.36846H6.31578Z" fill="#FF4B55"/>
<path d="M14.5653 7.36841L20.0003 3.84037V2.58533L12.6318 7.36841H14.5653Z" fill="#FF4B55"/>
</g>
<defs>
<clipPath id="clip0_16460_2837">
<rect width="20" height="20" rx="10" fill="white"/>
</clipPath>
</defs>
</svg>
